<svg xmlns="http://www.w3.org/2000/svg" viewBox="-3687 -4825 116.786 117.16"><defs><style/></defs><g id="Logo" transform="translate(-3949 -4881)"><g id="Layer_1" data-name="Layer 1" transform="translate(262 56)"><path id="Path_727" data-name="Path 727" d="M0 72.022l5.772-5.772L37.7 98.156V86.529L11.558 60.478l5.911-5.911L37.7 74.791V63.025L23.31 48.7l5.855-5.848 16.8 16.8v58.324z" transform="translate(0 -13.235)"/><path id="Path_728" data-name="Path 728" d="M148.287 72.089l-5.772-5.772-31.927 31.906V86.575L136.7 60.559l-5.911-5.911-20.2 20.237V63.12l14.389-14.361-5.855-5.848-16.813 16.824v58.331z" transform="translate(-31.501 -13.253)"/><path id="Path_729" data-name="Path 729" d="M82.543 117.22l-4.153-4.153V4.213L82.543.06 86.7 4.213v108.9z" transform="translate(-24.136 -.06)"/><path id="Path_730" data-name="Path 730" d="M61.558 18.67V40.5L50.63 29.585z" transform="translate(-15.589 -5.79)"/><path id="Path_731" data-name="Path 731" d="M102.39 18.59l10.755 10.755c-2.72 2.678-8.022 8.4-10.755 11.129z" transform="translate(-31.525 -5.765)"/></g></g></svg>